<?xml version="1.0" encoding="UTF-8"?>
<svg xmlns="http://www.w3.org/2000/svg" xmlns:xlink="http://www.w3.org/1999/xlink" viewBox="0 0 35 35" width="35px" height="35px">
<g id="surface262833463">
<path style=" stroke:none;fill-rule:nonzero;fill:rgb(100%,75.686276%,2.745098%);fill-opacity:1;" d="M 17.5 1.398438 C 8.609375 1.398438 1.398438 8.609375 1.398438 17.5 C 1.398438 26.390625 8.609375 33.601562 17.5 33.601562 C 26.390625 33.601562 33.601562 26.390625 33.601562 17.5 C 33.601562 8.609375 26.390625 1.398438 17.5 1.398438 Z M 17.5 2.800781 C 25.621094 2.800781 32.199219 9.378906 32.199219 17.5 C 32.199219 25.621094 25.621094 32.199219 17.5 32.199219 C 9.378906 32.199219 2.800781 25.621094 2.800781 17.5 C 2.800781 9.378906 9.378906 2.800781 17.5 2.800781 Z M 18.550781 7 C 16.660156 7 15.257812 7.628906 14.417969 8.679688 C 13.578125 9.730469 13.300781 11.199219 13.300781 12.738281 L 13.300781 14 L 11.898438 14 C 11.550781 14 11.199219 14.351562 11.199219 14.699219 L 11.199219 18.199219 C 11.199219 18.550781 11.550781 18.898438 11.898438 18.898438 L 13.300781 18.898438 L 13.300781 27.300781 C 13.300781 27.648438 13.648438 28 14 28 L 18.199219 28 C 18.550781 28 18.898438 27.648438 18.898438 27.300781 L 18.898438 18.898438 L 21.699219 18.898438 C 21.789062 18.898438 21.871094 18.886719 21.949219 18.863281 C 22.175781 18.785156 22.347656 18.601562 22.398438 18.339844 L 23.101562 14.839844 C 23.171875 14.628906 23.101562 14.421875 22.960938 14.28125 C 22.820312 14.070312 22.609375 14 22.398438 14 L 18.898438 14 L 18.898438 12.460938 C 18.898438 12.285156 18.898438 12.195312 18.917969 12.144531 C 18.933594 12.09375 18.96875 12.074219 19.039062 12.039062 C 19.109375 11.96875 19.53125 11.898438 20.089844 11.898438 L 22.398438 11.898438 C 22.75 11.898438 23.101562 11.550781 23.101562 11.199219 L 23.101562 8.398438 C 23.101562 8.121094 22.890625 7.839844 22.609375 7.769531 C 22.609375 7.769531 20.578125 7 18.550781 7 Z M 18.621094 8.332031 C 19.949219 8.332031 21.140625 8.679688 21.699219 8.890625 L 21.699219 10.5 L 20.089844 10.5 C 19.320312 10.5 18.757812 10.570312 18.269531 10.917969 C 17.78125 11.199219 17.5 11.832031 17.5 12.460938 L 17.5 14.699219 C 17.5 15.050781 17.851562 15.398438 18.199219 15.398438 L 21.5625 15.398438 L 21.140625 17.5 L 18.199219 17.5 C 18.113281 17.5 18.023438 17.523438 17.941406 17.558594 C 17.695312 17.675781 17.5 17.9375 17.5 18.199219 L 17.5 26.601562 L 14.699219 26.601562 L 14.699219 18.199219 C 14.699219 18.113281 14.679688 18.023438 14.640625 17.941406 C 14.523438 17.695312 14.261719 17.5 14 17.5 L 12.601562 17.5 L 12.601562 15.398438 L 14 15.398438 C 14.085938 15.398438 14.175781 15.378906 14.257812 15.339844 C 14.503906 15.226562 14.699219 14.960938 14.699219 14.699219 L 14.699219 12.738281 C 14.699219 12.390625 14.71875 12.0625 14.753906 11.753906 C 14.855469 10.832031 15.121094 10.097656 15.539062 9.519531 C 16.097656 8.820312 17.007812 8.332031 18.621094 8.332031 Z M 18.621094 8.332031 "/>
</g>
</svg>
