<?xml version="1.0" encoding="UTF-8"?>
<svg xmlns="http://www.w3.org/2000/svg" xmlns:xlink="http://www.w3.org/1999/xlink" viewBox="0 0 35 35" width="35px" height="35px">
<g id="surface262513582">
<path style=" stroke:none;fill-rule:nonzero;fill:rgb(100%,75.686276%,2.745098%);fill-opacity:1;" d="M 11.199219 2.101562 C 6.199219 2.101562 2.101562 6.199219 2.101562 11.199219 L 2.101562 23.800781 C 2.101562 28.800781 6.199219 32.898438 11.199219 32.898438 L 23.800781 32.898438 C 28.800781 32.898438 32.898438 28.800781 32.898438 23.800781 L 32.898438 11.199219 C 32.898438 6.199219 28.800781 2.101562 23.800781 2.101562 Z M 11.199219 3.5 L 23.800781 3.5 C 28.039062 3.5 31.5 6.960938 31.5 11.199219 L 31.5 23.800781 C 31.5 28.039062 28.039062 31.5 23.800781 31.5 L 11.199219 31.5 C 6.960938 31.5 3.5 28.039062 3.5 23.800781 L 3.5 11.199219 C 3.5 6.960938 6.960938 3.5 11.199219 3.5 Z M 25.898438 7.699219 C 25.128906 7.699219 24.5 8.328125 24.5 9.101562 C 24.5 9.871094 25.128906 10.5 25.898438 10.5 C 26.671875 10.5 27.300781 9.871094 27.300781 9.101562 C 27.300781 8.328125 26.671875 7.699219 25.898438 7.699219 Z M 17.5 9.800781 C 13.269531 9.800781 9.800781 13.269531 9.800781 17.5 C 9.800781 21.730469 13.269531 25.199219 17.5 25.199219 C 21.730469 25.199219 25.199219 21.730469 25.199219 17.5 C 25.199219 13.269531 21.730469 9.800781 17.5 9.800781 Z M 17.5 11.199219 C 20.96875 11.199219 23.800781 14.03125 23.800781 17.5 C 23.800781 20.96875 20.96875 23.800781 17.5 23.800781 C 14.03125 23.800781 11.199219 20.96875 11.199219 17.5 C 11.199219 14.03125 14.03125 11.199219 17.5 11.199219 Z M 17.5 11.199219 "/>
</g>
</svg>
