<?xml version="1.0" encoding="UTF-8"?>
<svg xmlns="http://www.w3.org/2000/svg" xmlns:xlink="http://www.w3.org/1999/xlink" viewBox="0 0 35 35" width="35px" height="35px">
<g id="surface262843807">
<path style=" stroke:none;fill-rule:nonzero;fill:rgb(100%,75.686276%,2.745098%);fill-opacity:1;" d="M 17.5 1.398438 C 8.617188 1.398438 1.398438 8.617188 1.398438 17.5 C 1.398438 26.382812 8.617188 33.601562 17.5 33.601562 C 26.382812 33.601562 33.601562 26.382812 33.601562 17.5 C 33.601562 8.617188 26.382812 1.398438 17.5 1.398438 Z M 17.5 2.800781 C 25.625 2.800781 32.199219 9.375 32.199219 17.5 C 32.199219 25.625 25.625 32.199219 17.5 32.199219 C 9.375 32.199219 2.800781 25.625 2.800781 17.5 C 2.800781 9.375 9.375 2.800781 17.5 2.800781 Z M 11.199219 8.398438 C 10.046875 8.398438 9.101562 9.347656 9.101562 10.5 C 9.101562 11.652344 10.046875 12.601562 11.199219 12.601562 C 12.351562 12.601562 13.300781 11.652344 13.300781 10.5 C 13.300781 9.347656 12.351562 8.398438 11.199219 8.398438 Z M 11.199219 9.800781 C 11.59375 9.800781 11.898438 10.105469 11.898438 10.5 C 11.898438 10.894531 11.59375 11.199219 11.199219 11.199219 C 10.804688 11.199219 10.5 10.894531 10.5 10.5 C 10.5 10.105469 10.804688 9.800781 11.199219 9.800781 Z M 9.800781 13.300781 C 9.414062 13.300781 9.101562 13.613281 9.101562 14 L 9.101562 24.5 C 9.101562 24.886719 9.414062 25.199219 9.800781 25.199219 L 12.601562 25.199219 C 12.984375 25.199219 13.300781 24.886719 13.300781 24.5 L 13.300781 14 C 13.300781 13.613281 12.984375 13.300781 12.601562 13.300781 Z M 15.398438 13.300781 C 15.015625 13.300781 14.699219 13.613281 14.699219 14 L 14.699219 24.5 C 14.699219 24.886719 15.015625 25.199219 15.398438 25.199219 L 18.199219 25.199219 C 18.585938 25.199219 18.898438 24.886719 18.898438 24.5 L 18.898438 19.25 C 18.898438 18.285156 19.683594 17.5 20.648438 17.5 C 21.617188 17.5 22.398438 18.285156 22.398438 19.25 L 22.398438 24.5 C 22.398438 24.886719 22.714844 25.199219 23.101562 25.199219 L 25.898438 25.199219 C 26.285156 25.199219 26.601562 24.886719 26.601562 24.5 L 26.601562 18.550781 C 26.601562 15.660156 24.242188 13.300781 21.351562 13.300781 C 20.449219 13.300781 19.640625 13.59375 18.898438 13.992188 C 18.898438 13.609375 18.582031 13.300781 18.199219 13.300781 Z M 10.5 14.699219 L 11.898438 14.699219 L 11.898438 23.800781 L 10.5 23.800781 Z M 16.101562 14.699219 L 17.5 14.699219 L 17.5 15.273438 C 17.5 15.554688 17.667969 15.804688 17.925781 15.917969 C 18.183594 16.027344 18.484375 15.972656 18.683594 15.773438 C 19.378906 15.109375 20.3125 14.699219 21.351562 14.699219 C 23.484375 14.699219 25.199219 16.414062 25.199219 18.550781 L 25.199219 23.800781 L 23.800781 23.800781 L 23.800781 19.25 C 23.800781 17.523438 22.378906 16.101562 20.648438 16.101562 C 18.921875 16.101562 17.5 17.523438 17.5 19.25 L 17.5 23.800781 L 16.101562 23.800781 Z M 16.101562 14.699219 "/>
</g>
</svg>
